<svg width="500" height="980" viewBox="0 0 500 980" fill="none" xmlns="http://www.w3.org/2000/svg">
  <defs>
    <linearGradient id="panel" x1="60" y1="0" x2="440" y2="980" gradientUnits="userSpaceOnUse">
      <stop stop-color="#6D4D33"/>
      <stop offset="1" stop-color="#332114"/>
    </linearGradient>
  </defs>
  <rect x="60" y="20" width="380" height="940" rx="14" fill="url(#panel)"/>
  <rect x="80" y="40" width="340" height="900" rx="10" stroke="rgba(255,255,255,0.22)"/>
  <rect x="104" y="90" width="292" height="800" rx="8" stroke="rgba(244,220,188,0.28)"/>
  <rect x="140" y="90" width="6" height="800" rx="3" fill="rgba(255,255,255,0.12)"/>
  <rect x="168" y="90" width="6" height="800" rx="3" fill="rgba(255,255,255,0.12)"/>
  <rect x="196" y="90" width="6" height="800" rx="3" fill="rgba(255,255,255,0.12)"/>
  <rect x="224" y="90" width="6" height="800" rx="3" fill="rgba(255,255,255,0.12)"/>
  <rect x="252" y="90" width="6" height="800" rx="3" fill="rgba(255,255,255,0.12)"/>
  <rect x="280" y="90" width="6" height="800" rx="3" fill="rgba(255,255,255,0.12)"/>
  <rect x="308" y="90" width="6" height="800" rx="3" fill="rgba(255,255,255,0.12)"/>
  <rect x="336" y="90" width="6" height="800" rx="3" fill="rgba(255,255,255,0.12)"/>
  <rect x="356" y="220" width="16" height="520" rx="8" fill="#E9DDCF"/>
</svg>
