<svg width="500" height="980" viewBox="0 0 500 980" fill="none" xmlns="http://www.w3.org/2000/svg">
  <defs>
    <linearGradient id="midnightPanel" x1="80" y1="30" x2="430" y2="960" gradientUnits="userSpaceOnUse">
      <stop stop-color="#202D3B"></stop>
      <stop offset="0.42" stop-color="#101B28"></stop>
      <stop offset="1" stop-color="#07101A"></stop>
    </linearGradient>

    <linearGradient id="midnightFrame" x1="58" y1="20" x2="444" y2="960" gradientUnits="userSpaceOnUse">
      <stop stop-color="#8EA3B6" stop-opacity="0.72"></stop>
      <stop offset="0.24" stop-color="#263645"></stop>
      <stop offset="1" stop-color="#0B1118"></stop>
    </linearGradient>

    <linearGradient id="midnightGlass" x1="122" y1="96" x2="184" y2="888" gradientUnits="userSpaceOnUse">
      <stop stop-color="#68F0FF" stop-opacity="0.72"></stop>
      <stop offset="0.45" stop-color="#2CE3FF" stop-opacity="0.18"></stop>
      <stop offset="1" stop-color="#2CE3FF" stop-opacity="0.04"></stop>
    </linearGradient>

    <linearGradient id="midnightHandle" x1="358" y1="230" x2="386" y2="716" gradientUnits="userSpaceOnUse">
      <stop stop-color="#F2F7FA"></stop>
      <stop offset="0.5" stop-color="#A7B7C4"></stop>
      <stop offset="1" stop-color="#E6EEF4"></stop>
    </linearGradient>

    <filter id="midnightShadow" x="26" y="10" width="448" height="970" filterUnits="userSpaceOnUse">
      <feDropShadow dx="0" dy="30" stdDeviation="22" flood-color="#000000" flood-opacity="0.55"></feDropShadow>
    </filter>

    <filter id="midnightGlow" x="92" y="72" width="110" height="850" filterUnits="userSpaceOnUse">
      <feGaussianBlur stdDeviation="8"></feGaussianBlur>
    </filter>
  </defs>

  <g filter="url(#midnightShadow)">
    <rect x="52" y="18" width="396" height="944" rx="18" fill="url(#midnightFrame)"></rect>
    <rect x="68" y="34" width="364" height="912" rx="13" fill="#060B12"></rect>
    <rect x="82" y="48" width="336" height="884" rx="10" fill="url(#midnightPanel)"></rect>

    <rect x="94" y="62" width="312" height="856" rx="8" stroke="#FFFFFF" stroke-opacity="0.12" stroke-width="2"></rect>
    <rect x="112" y="88" width="78" height="824" rx="8" fill="#050A10" fill-opacity="0.48"></rect>
    <rect x="124" y="106" width="28" height="788" rx="14" fill="url(#midnightGlass)"></rect>
    <rect x="162" y="106" width="10" height="788" rx="5" fill="#FFFFFF" fill-opacity="0.08"></rect>

    <g filter="url(#midnightGlow)" opacity="0.9">
      <rect x="128" y="116" width="18" height="768" rx="9" fill="#2CE3FF" fill-opacity="0.22"></rect>
    </g>

    <rect x="214" y="96" width="166" height="792" rx="7" fill="#0A111A" fill-opacity="0.38" stroke="#FFFFFF" stroke-opacity="0.1"></rect>
    <rect x="235" y="126" width="2" height="732" fill="#FFFFFF" fill-opacity="0.09"></rect>
    <rect x="270" y="126" width="2" height="732" fill="#FFFFFF" fill-opacity="0.07"></rect>
    <rect x="305" y="126" width="2" height="732" fill="#FFFFFF" fill-opacity="0.07"></rect>

    <rect x="356" y="238" width="22" height="478" rx="11" fill="url(#midnightHandle)"></rect>
    <rect x="362" y="258" width="5" height="438" rx="2.5" fill="#FFFFFF" fill-opacity="0.55"></rect>

    <rect x="82" y="48" width="336" height="884" rx="10" fill="url(#midnightGlass)" opacity="0.05"></rect>
    <path d="M94 62H406" stroke="#FFFFFF" stroke-opacity="0.18" stroke-width="2"></path>
    <path d="M94 918H406" stroke="#000000" stroke-opacity="0.35" stroke-width="2"></path>
  </g>
</svg>