<svg width="500" height="980" viewBox="0 0 500 980" fill="none" xmlns="http://www.w3.org/2000/svg">
  <defs>
    <linearGradient id="woodPanel" x1="80" y1="34" x2="430" y2="960" gradientUnits="userSpaceOnUse">
      <stop stop-color="#8B6039"></stop>
      <stop offset="0.35" stop-color="#5B3821"></stop>
      <stop offset="1" stop-color="#21140B"></stop>
    </linearGradient>

    <linearGradient id="woodFrame" x1="50" y1="18" x2="450" y2="960" gradientUnits="userSpaceOnUse">
      <stop stop-color="#B28A60"></stop>
      <stop offset="0.25" stop-color="#3B281B"></stop>
      <stop offset="1" stop-color="#120B06"></stop>
    </linearGradient>

    <linearGradient id="woodHandle" x1="350" y1="236" x2="380" y2="720" gradientUnits="userSpaceOnUse">
      <stop stop-color="#FFF2DC"></stop>
      <stop offset="0.5" stop-color="#C7A77E"></stop>
      <stop offset="1" stop-color="#F5E5CF"></stop>
    </linearGradient>

    <filter id="woodShadow" x="26" y="10" width="448" height="970" filterUnits="userSpaceOnUse">
      <feDropShadow dx="0" dy="30" stdDeviation="22" flood-color="#000000" flood-opacity="0.55"></feDropShadow>
    </filter>
  </defs>

  <g filter="url(#woodShadow)">
    <rect x="52" y="18" width="396" height="944" rx="18" fill="url(#woodFrame)"></rect>
    <rect x="68" y="34" width="364" height="912" rx="13" fill="#160D07"></rect>
    <rect x="82" y="48" width="336" height="884" rx="10" fill="url(#woodPanel)"></rect>

    <rect x="98" y="66" width="304" height="848" rx="8" stroke="#F3D8B8" stroke-opacity="0.18" stroke-width="2"></rect>

    <rect x="118" y="86" width="242" height="808" rx="8" fill="#1A0F08" fill-opacity="0.18"></rect>
    <path d="M132 90C154 170 108 250 140 338C174 432 122 522 152 620C174 692 142 780 164 892" stroke="#F6D3A8" stroke-opacity="0.13" stroke-width="4"></path>
    <path d="M176 90C198 178 152 260 184 344C216 430 168 536 198 626C224 704 190 790 214 892" stroke="#F6D3A8" stroke-opacity="0.11" stroke-width="4"></path>
    <path d="M224 90C250 176 204 260 232 348C262 442 218 532 246 632C270 716 238 796 258 892" stroke="#F6D3A8" stroke-opacity="0.12" stroke-width="4"></path>
    <path d="M276 90C306 174 254 268 286 350C320 438 272 536 300 630C326 716 292 794 318 892" stroke="#F6D3A8" stroke-opacity="0.1" stroke-width="4"></path>

    <rect x="102" y="96" width="18" height="792" rx="9" fill="#FFFFFF" fill-opacity="0.06"></rect>
    <rect x="374" y="96" width="10" height="792" rx="5" fill="#000000" fill-opacity="0.18"></rect>

    <rect x="350" y="238" width="23" height="482" rx="11.5" fill="url(#woodHandle)"></rect>
    <rect x="356" y="260" width="5" height="438" rx="2.5" fill="#FFFFFF" fill-opacity="0.42"></rect>

    <rect x="82" y="48" width="336" height="884" rx="10" fill="#FFFFFF" opacity="0.025"></rect>
    <path d="M98 66H402" stroke="#FFFFFF" stroke-opacity="0.16" stroke-width="2"></path>
    <path d="M98 914H402" stroke="#000000" stroke-opacity="0.34" stroke-width="2"></path>
  </g>
</svg>